<?xml version="1.0" standalone="no"?>
<!DOCTYPE svg PUBLIC "-//W3C//DTD SVG 20010904//EN"
 "http://www.w3.org/TR/2001/REC-SVG-20010904/DTD/svg10.dtd">
<svg version="1.0" xmlns="http://www.w3.org/2000/svg"
 width="225.000000pt" height="319.000000pt" viewBox="0 0 225.000000 319.000000"
 preserveAspectRatio="xMidYMid meet">

<g transform="translate(0.000000,319.000000) scale(0.100000,-0.100000)"
fill="#000000" stroke="none">
<path d="M1 2953 c1 -131 3 -232 6 -225 3 6 15 12 28 12 28 0 35 33 35 173 0
94 1 97 23 98 l22 0 -22 9 c-26 10 -31 40 -8 40 8 0 15 9 15 20 0 22 5 23 35
10 17 -7 17 -9 3 -9 -26 -1 -22 -21 5 -22 l22 0 -22 -9 c-49 -20 -23 -36 67
-43 25 -2 6 -4 -42 -5 l-88 -2 0 -70 0 -70 160 0 159 0 4 78 3 77 2 -77 2 -78
218 -2 c119 -1 193 -3 165 -5 l-53 -4 0 -70 0 -69 81 0 80 0 -2 77 -2 76 84
-2 c109 -3 117 -11 11 -11 l-82 0 0 -102 c0 -56 2 -99 5 -96 3 3 6 42 6 86 0
45 4 84 8 87 5 2 6 -8 4 -23 l-5 -27 17 23 c24 33 48 27 84 -23 32 -45 51 -57
51 -32 0 8 3 7 9 -3 6 -8 7 -18 4 -24 -3 -5 -1 -6 6 -2 6 4 26 0 43 -8 25 -13
33 -14 40 -4 5 9 8 3 8 -14 0 -15 -4 -30 -10 -33 -5 -3 -15 -16 -21 -28 -9
-18 -9 -20 2 -9 14 13 59 17 59 5 0 -5 -14 -16 -31 -26 -31 -17 -32 -17 -68
10 -20 15 -67 54 -104 86 -38 33 -70 57 -73 54 -2 -2 41 -41 96 -87 59 -48
100 -90 100 -100 0 -10 3 -26 6 -34 5 -12 2 -15 -10 -10 -11 4 -15 2 -11 -8 6
-16 -30 -34 -132 -64 -74 -22 -90 -50 -52 -90 12 -13 26 -24 31 -24 9 0 90
-34 118 -49 17 -9 28 -54 22 -88 -3 -14 -9 -20 -16 -16 -6 4 -5 0 2 -9 21 -27
-5 -218 -30 -218 -7 0 -6 -5 2 -15 7 -8 16 -12 21 -9 5 3 9 -3 9 -12 0 -16 -1
-16 -18 -1 -24 22 -31 21 -25 -2 3 -10 0 -22 -5 -25 -6 -4 -14 15 -19 46 -7
45 -12 54 -31 56 -20 3 -23 8 -17 30 l6 27 -26 -29 c-14 -16 -25 -25 -26 -20
-1 5 -4 -2 -8 -16 -5 -16 -13 -24 -24 -22 -9 2 -17 -2 -17 -8 0 -13 -37 -13
-45 0 -3 5 -13 6 -21 3 -13 -5 -15 -1 -9 16 6 19 4 21 -12 13 -10 -6 -30 -15
-45 -21 -28 -10 -28 -12 -29 -103 -2 -87 -3 -113 -7 -146 -1 -7 -7 -10 -14 -6
-7 4 -8 3 -4 -5 4 -6 0 -14 -8 -17 -9 -3 -13 -10 -10 -15 3 -6 -6 -8 -21 -5
-36 7 -41 13 -16 21 30 9 26 25 -9 32 -17 3 -36 14 -43 24 -13 17 -16 16 -71
-16 -31 -19 -59 -35 -62 -35 -3 0 -14 8 -25 18 -15 15 -16 19 -4 19 8 0 15 -4
15 -9 0 -5 4 -7 10 -3 5 3 7 13 4 23 -5 14 -4 15 5 2 8 -11 15 -12 28 -4 22
14 27 31 9 31 -8 0 -12 -6 -9 -15 5 -12 2 -12 -16 -2 -17 9 -26 9 -37 -1 -8
-6 -17 -9 -21 -6 -3 4 -13 1 -21 -6 -13 -9 -14 -9 -8 1 5 8 0 12 -16 12 -22 0
-22 1 5 19 22 14 25 20 13 24 -8 3 -18 2 -21 -3 -11 -19 -21 -10 -20 17 1 32
-15 60 -25 43 -4 -7 -14 -4 -29 9 -13 11 -20 24 -17 30 4 5 2 12 -4 16 -5 3
-10 1 -10 -4 0 -6 -9 -2 -20 9 -11 11 -20 27 -20 35 0 9 -6 12 -15 9 -9 -4
-15 0 -15 7 -1 32 -74 89 -83 66 -3 -7 -6 24 -6 68 0 44 3 85 7 92 5 8 30 0
85 -28 133 -67 83 -27 -75 59 -43 24 -78 38 -78 32 0 -6 12 -18 28 -28 27 -17
27 -18 21 -97 -3 -44 -6 -67 -7 -51 -2 25 -4 27 -19 15 -11 -10 -14 -10 -9 -2
4 7 0 28 -10 45 -32 62 -35 69 -29 78 3 6 -1 7 -9 4 -14 -5 -16 -53 -16 -396
l0 -390 47 28 c136 78 150 90 164 139 25 86 74 94 209 33 47 -21 70 -37 69
-47 -4 -39 15 -82 41 -96 14 -7 32 -21 39 -29 11 -13 11 -17 -2 -22 -10 -3
-13 -12 -10 -22 4 -10 -3 -6 -15 8 l-21 25 -1 -27 c0 -34 -6 -35 -31 -5 -15
18 -18 19 -19 5 0 -9 -10 -25 -23 -35 -13 -11 -21 -26 -19 -38 2 -15 1 -17 -6
-6 -8 11 -11 9 -17 -8 -10 -31 -25 -26 -25 9 0 28 -3 30 -32 29 -56 -3 -69 -9
-63 -29 8 -24 -6 -31 -44 -24 -25 5 -31 12 -31 31 0 14 10 33 22 42 l22 18
-27 57 c-15 32 -31 56 -35 54 -4 -2 -49 -28 -99 -58 l-93 -55 0 -702 0 -703
1125 0 1125 0 0 947 c0 521 -4 942 -9 937 -151 -172 -240 -284 -235 -298 4
-11 0 -16 -14 -16 -15 0 -67 -53 -169 -172 -512 -594 -952 -1098 -960 -1098
-1 0 -3 2 -3 5 0 7 138 171 309 369 86 99 187 216 226 260 38 45 114 133 169
196 225 260 301 352 300 366 -1 8 -2 26 -3 40 0 14 -5 22 -11 19 -6 -3 -10 3
-10 15 0 11 7 23 15 26 12 5 13 10 4 20 -6 7 -9 23 -7 36 4 21 6 20 22 -14 26
-50 47 -40 44 21 l-1 46 -4 -44 -4 -44 -20 29 c-10 16 -24 37 -31 47 -11 14
-10 19 1 26 10 6 12 21 7 52 -3 24 -9 94 -12 156 -6 98 -9 113 -25 118 -14 5
-18 15 -17 43 0 21 -4 54 -11 75 -11 33 -16 37 -46 37 -18 0 -38 -7 -45 -15
-7 -8 -9 -15 -5 -15 4 0 2 -6 -4 -14 -7 -8 -12 -33 -13 -56 0 -29 -5 -43 -17
-47 -24 -9 -51 -40 -51 -59 0 -10 5 -14 16 -10 9 3 12 2 9 -5 -15 -23 -30 0
-30 48 0 62 -34 116 -87 140 -21 9 -39 19 -39 22 -1 3 -4 24 -6 46 -3 37 -8
73 -11 102 -2 13 -90 45 -103 37 -8 -5 -13 9 -10 28 0 4 -9 13 -22 19 -20 11
-21 11 -9 -4 9 -10 11 -28 6 -51 -5 -32 -4 -36 14 -36 11 0 23 8 25 18 4 13 5
12 6 -4 1 -23 -20 -37 -43 -28 -10 4 -18 -14 -30 -68 -26 -117 -29 -145 -17
-128 6 8 11 10 11 5 0 -6 -7 -20 -15 -33 -14 -19 -14 -36 -5 -129 6 -60 15
-120 20 -135 6 -17 5 -28 -1 -28 -5 0 -9 7 -9 16 0 12 -6 15 -20 11 -17 -4
-22 0 -27 24 -8 41 -19 44 -33 9 -15 -35 -14 -35 -51 -13 -34 20 -34 25 -13
84 8 24 19 91 24 149 5 58 13 137 16 177 7 71 6 72 -16 66 -21 -6 -22 -9 -17
-97 4 -68 3 -78 -3 -41 -15 88 -12 145 6 145 14 0 15 2 3 17 -13 15 -12 15 9
4 12 -6 26 -10 31 -7 10 7 32 -32 33 -59 0 -11 -9 -65 -20 -120 -29 -139 -37
-237 -22 -264 11 -21 13 -22 30 -6 15 14 19 41 25 193 8 186 14 217 45 239 11
8 20 19 20 25 0 6 -10 2 -23 -10 -31 -29 -55 -28 -63 3 -3 14 -11 22 -16 19
-6 -4 -8 2 -3 16 5 17 3 21 -12 20 -35 -4 -38 0 -38 48 0 32 4 46 13 45 12 -3
16 8 12 41 -1 10 2 16 7 13 14 -9 42 18 40 39 -1 13 5 20 21 22 18 3 22 -1 22
-22 0 -33 27 -61 46 -45 10 8 12 7 9 -10 -2 -13 1 -18 10 -15 24 10 30 -19 7
-34 -12 -8 -22 -21 -22 -30 0 -11 5 -10 19 6 23 28 29 27 41 0 8 -22 9 -22 9
-2 1 11 -4 25 -11 32 -9 9 -9 12 0 12 13 0 18 99 5 101 -5 0 -28 2 -51 4 -24
1 -48 7 -54 13 -7 7 1 10 26 8 20 -2 39 1 42 5 3 5 16 2 29 -7 13 -9 29 -13
34 -10 5 4 12 -6 14 -21 2 -16 5 -3 6 26 l1 55 35 -34 c19 -19 35 -30 35 -24
0 5 5 1 11 -8 5 -10 20 -23 32 -29 12 -6 -9 21 -47 60 -118 120 -66 89 73 -44
73 -69 136 -123 141 -120 5 3 12 0 16 -6 5 -8 3 -9 -7 -4 -12 8 -12 6 0 -9 11
-13 16 -14 22 -4 6 9 10 8 15 -5 3 -9 12 -17 20 -17 8 0 14 -10 14 -24 0 -14
5 -28 12 -32 7 -4 8 -3 4 4 -4 7 -4 17 0 23 4 7 27 -10 61 -43 41 -40 56 -50
62 -39 6 10 -30 53 -132 157 -77 79 -145 144 -151 144 -14 0 -104 90 -91 90 6
1 -1 10 -14 20 -13 11 -19 20 -14 20 5 0 31 -22 58 -50 27 -27 55 -50 61 -50
7 0 15 -6 17 -12 4 -10 6 -10 6 0 1 10 5 10 16 -2 9 -8 22 -13 30 -10 7 3 18
-4 25 -16 6 -11 15 -18 20 -15 17 10 55 -6 74 -32 11 -15 14 -23 8 -19 -6 3
-14 2 -17 -4 -4 -6 -3 -10 2 -9 13 3 47 -13 70 -34 12 -10 26 -16 31 -13 5 3
9 -9 8 -26 0 -21 6 -35 19 -42 11 -6 22 -12 24 -13 2 -2 -2 -11 -10 -20 -11
-15 -11 -16 1 -5 19 17 61 15 88 -4 23 -16 40 -48 48 -89 3 -20 3 -20 -11 -1
-17 23 -20 4 -4 -25 8 -16 6 -26 -7 -47 -10 -16 -19 -22 -22 -14 -8 24 -62 13
-94 -18 -16 -16 -26 -30 -22 -30 4 0 0 -6 -11 -13 -10 -8 -15 -19 -12 -24 4
-6 0 -25 -9 -42 -8 -17 -13 -35 -9 -41 11 -18 34 -11 37 13 2 14 11 23 24 25
18 3 22 -2 20 -22 0 -13 -3 -24 -6 -24 -21 1 -32 -6 -45 -32 -15 -28 -14 -30
3 -30 11 0 25 12 32 28 l13 27 10 -27 c10 -25 14 -27 54 -21 36 5 46 2 58 -13
19 -25 19 -3 1 41 -14 32 -13 35 5 40 12 4 22 19 26 37 4 21 8 26 14 16 15
-22 9 6 -6 32 -8 14 -14 39 -15 57 0 17 -4 34 -9 37 -11 7 -21 46 -12 46 4 0
12 -15 19 -32 6 -18 32 -56 56 -84 25 -28 42 -54 39 -58 -3 -3 1 -6 10 -6 14
0 17 11 17 67 0 64 -2 69 -37 108 l-38 40 38 -34 37 -35 0 130 c0 90 -4 134
-12 143 -10 11 -10 13 0 7 9 -6 12 65 12 338 l0 346 -1125 0 -1125 0 1 -237z
m225 143 c8 -8 14 -22 14 -31 0 -9 4 -14 9 -10 5 3 12 1 16 -5 3 -5 17 -10 31
-10 13 0 24 -4 24 -9 0 -5 -34 -9 -75 -9 -41 0 -75 4 -75 9 0 5 11 9 25 9 18
0 25 5 25 20 0 16 -7 20 -30 20 -22 0 -28 4 -24 15 8 19 41 19 60 1z m94 0 c0
-19 -23 -33 -28 -18 -2 7 -12 12 -23 12 -10 0 -19 5 -19 10 0 6 16 10 35 10
24 0 35 -5 35 -14z m66 -1 c-3 -9 0 -15 9 -15 23 0 18 -17 -7 -25 -20 -6 -20
-8 -5 -12 25 -7 21 -23 -6 -23 -30 0 -40 10 -26 27 9 10 7 13 -10 13 -28 0
-27 20 2 21 16 1 18 2 5 6 -29 7 -20 23 13 23 24 0 30 -4 25 -15z m684 -65 l0
-30 -165 0 c-125 0 -165 -3 -166 -12 0 -10 -2 -10 -6 0 -3 7 -23 12 -49 12
-50 0 -53 4 -22 37 21 22 26 23 215 23 l193 0 0 -30z m-623 -26 c-3 -3 -12 -4
-19 -1 -8 3 -5 6 6 6 11 1 17 -2 13 -5z m-244 -24 c27 0 17 -33 -13 -41 -23
-6 -23 -7 -3 -8 29 -1 41 -21 12 -21 -21 0 -21 0 2 -20 18 -14 20 -19 8 -20
-8 0 -24 6 -34 14 -17 12 -22 12 -39 0 -33 -22 -55 -17 -26 6 l25 20 -25 1
c-24 1 -24 1 5 14 30 13 30 13 5 16 -36 6 -38 36 -3 42 15 2 37 3 48 1 11 -2
28 -4 38 -4z m137 0 c0 -5 9 -10 20 -10 17 0 20 -7 20 -50 0 -48 -1 -50 -27
-49 -17 1 -21 3 -10 6 12 3 17 15 17 44 0 52 -23 52 -50 0 -20 -40 -37 -57
-46 -48 -3 3 4 23 15 45 19 38 19 41 3 45 -13 4 -11 5 6 6 12 0 22 6 22 11 0
6 7 10 15 10 8 0 15 -4 15 -10z m183 3 c-39 -5 -68 -43 -33 -43 13 0 18 4 14
11 -4 7 1 10 11 7 28 -5 30 -28 3 -29 -23 -1 -23 -1 2 -9 24 -8 24 -8 3 -9
-36 -2 -28 -29 10 -34 17 -2 -2 -4 -43 -4 -41 0 -63 2 -47 4 33 5 37 33 5 34
-22 1 -22 1 2 9 24 8 24 8 2 9 -21 1 -22 2 -7 25 16 23 15 25 -7 29 -13 2 9 4
47 4 39 0 55 -2 38 -4z m144 -7 c4 -8 17 -16 28 -19 18 -4 18 -5 -2 -6 -19 -1
-23 -7 -23 -35 0 -30 4 -35 28 -39 15 -2 -7 -4 -48 -4 -41 0 -60 2 -42 4 32 4
32 5 32 59 0 52 11 68 27 40z m163 4 c0 -5 12 -10 28 -11 27 -1 27 -1 3 -8
-36 -10 -38 -31 -4 -32 l28 -2 -28 -4 c-38 -6 -32 -36 8 -44 18 -4 1 -7 -45
-6 -41 0 -63 2 -47 4 34 5 38 40 5 46 -20 4 -19 4 4 6 33 1 28 30 -6 32 -20 2
-20 2 2 6 12 2 20 9 17 14 -4 5 3 9 14 9 12 0 21 -4 21 -10z m145 0 c5 -8 11
-7 20 0 8 7 20 8 26 4 9 -5 7 -10 -7 -15 -17 -7 -16 -8 6 -9 l25 -2 -25 -8
-25 -8 27 -1 c21 -1 26 -5 23 -21 -2 -11 -6 -24 -9 -29 -4 -5 0 -12 6 -14 7
-3 -4 -5 -25 -4 -21 0 -33 3 -28 6 13 9 10 52 -4 48 -5 -2 -11 -10 -11 -18 -1
-8 -2 -20 -3 -26 0 -7 -13 -13 -28 -12 -25 0 -26 1 -8 9 l20 9 -20 1 c-18 2
-18 3 -2 7 18 5 18 6 1 24 -16 18 -16 19 12 20 29 1 29 1 4 9 l-25 8 25 2 c14
1 19 4 13 7 -15 6 -17 23 -4 23 6 0 13 -5 16 -10z m-68 -72 c-3 -8 -6 -5 -6 6
-1 11 2 17 5 13 3 -3 4 -12 1 -19z m1113 -128 c41 -51 48 -66 35 -68 -9 -2
-22 -1 -30 2 -18 7 -96 122 -88 130 14 14 33 -1 83 -64z m-1142 44 c17 -5 15
-24 -3 -24 -8 0 -15 5 -15 10 0 6 -18 10 -40 10 -22 0 -40 -4 -40 -10 0 -5 -7
-10 -16 -10 -9 0 -14 6 -12 13 8 21 73 28 126 11z m-818 -24 c0 -5 -2 -10 -4
-10 -3 0 -8 5 -11 10 -3 6 -1 10 4 10 6 0 11 -4 11 -10z m755 -10 c-21 -23
-47 -27 -39 -6 3 8 15 17 27 19 12 2 24 5 26 6 2 0 -4 -8 -14 -19z m50 -10 c3
-5 -1 -10 -9 -10 -8 0 -18 5 -21 10 -3 6 1 10 9 10 8 0 18 -4 21 -10z m-10
-20 c19 -8 19 -9 -2 -9 -35 -1 -27 -19 10 -24 17 -2 -2 -4 -43 -4 -41 0 -60 2
-42 4 36 5 44 23 10 24 -22 0 -22 1 -3 9 11 5 27 9 35 9 8 0 24 -4 35 -9z
m375 -70 c0 -5 -8 -10 -17 -10 -15 0 -16 2 -3 10 19 12 20 12 20 0z m799 -221
c79 -90 121 -141 95 -114 -113 117 -257 280 -282 319 -17 26 8 -1 187 -205z
m-719 91 c0 -5 -5 -10 -11 -10 -5 0 -7 5 -4 10 3 6 8 10 11 10 2 0 4 -4 4 -10z
m660 -130 c0 -5 -4 -10 -10 -10 -5 0 -10 5 -10 10 0 6 5 10 10 10 6 0 10 -4
10 -10z m-590 -129 c0 -13 -49 -121 -55 -121 -2 0 6 25 20 56 14 31 22 60 19
65 -3 5 0 9 5 9 6 0 11 -4 11 -9z m684 -130 c3 -5 -1 -11 -9 -14 -9 -4 -12 -1
-8 9 6 16 10 17 17 5z m-282 -26 c8 -18 8 -28 -1 -39 -7 -9 -9 -29 -5 -56 6
-34 4 -42 -7 -38 -8 2 -15 18 -17 34 -2 16 -8 33 -13 39 -13 13 -11 42 3 65
17 26 26 25 40 -5z m218 11 c0 -7 -6 -19 -14 -25 -11 -9 -15 -8 -20 5 -4 10
-1 21 6 26 19 12 28 10 28 -6z m-445 -66 c3 -5 1 -10 -4 -10 -6 0 -11 5 -11
10 0 6 2 10 4 10 3 0 8 -4 11 -10z m-95 -36 c0 -8 5 -14 10 -14 6 0 10 -8 11
-17 1 -12 4 -10 9 7 4 14 9 18 9 10 1 -13 2 -13 11 0 8 13 10 12 10 -2 0 -10
-5 -18 -11 -18 -5 0 -7 -5 -3 -12 6 -9 9 -9 12 0 6 19 20 14 27 -9 7 -20 7
-20 27 -2 21 18 21 18 7 -4 -8 -13 -17 -23 -21 -23 -5 0 -8 -20 -8 -45 0 -47
-1 -48 -53 -59 -25 -6 -27 -4 -22 17 5 18 1 26 -19 35 -14 6 -32 24 -40 40
-14 28 -14 30 4 35 26 7 28 56 3 58 -17 1 -17 2 0 6 9 2 17 9 17 14 0 6 5 7
10 4 6 -3 10 -13 10 -21z m-85 -11 c-21 -15 -30 -10 -22 11 4 10 13 13 23 9
15 -6 15 -7 -1 -20z m-221 2 c-4 -8 -7 -15 -9 -15 -2 0 -5 7 -9 15 -3 9 0 15
9 15 9 0 12 -6 9 -15z m566 -30 c4 -5 4 -19 1 -29 -7 -17 -8 -18 -14 -3 -4 10
-1 17 6 18 9 0 9 2 0 6 -7 2 -12 17 -12 31 1 21 2 23 6 7 3 -11 9 -24 13 -30z
m-604 -52 c-12 -21 -16 -23 -14 -8 2 11 8 25 13 31 17 20 17 7 1 -23z m-157
-35 c1 -11 -6 -18 -16 -18 -14 0 -15 2 -5 9 8 5 11 18 7 37 -4 23 -3 25 4 9 5
-11 10 -28 10 -37z m711 6 c0 -2 -9 0 -20 6 -11 6 -20 13 -20 16 0 2 9 0 20
-6 11 -6 20 -13 20 -16z m-874 -9 c0 -14 -4 -25 -8 -25 -10 0 -10 13 -2 34 9
23 12 20 10 -9z m-551 -25 c3 -5 1 -10 -4 -10 -6 0 -11 5 -11 10 0 6 2 10 4
10 3 0 8 -4 11 -10z m641 -77 c8 -3 14 -20 15 -42 1 -33 3 -30 24 34 17 51 20
72 11 77 -7 5 -5 8 7 8 9 0 17 -2 17 -4 0 -14 -44 -143 -52 -153 -9 -12 9 -83
22 -83 3 0 6 -10 7 -23 3 -46 21 -75 52 -82 17 -4 34 -11 37 -17 13 -20 15
-136 3 -144 -8 -5 -10 3 -7 25 3 22 -1 36 -14 48 -11 10 -18 12 -18 4 0 -7
-10 -9 -27 -6 -28 5 -28 5 -4 -5 52 -23 52 -24 4 -142 -42 -102 -45 -114 -33
-142 23 -56 40 -130 40 -172 0 -22 7 -63 15 -90 19 -64 13 -84 -23 -75 -23 6
-27 13 -28 47 -2 50 -74 268 -85 257 -9 -9 -16 -347 -8 -378 4 -15 -2 -25 -23
-37 -16 -10 -31 -18 -33 -18 -3 0 -3 19 0 43 3 23 -3 89 -13 147 -15 87 -17
120 -9 193 13 111 -13 283 -45 306 -22 15 -19 38 12 103 15 31 15 38 4 38 -8
0 -14 5 -14 11 0 6 6 9 14 6 23 -9 79 140 72 189 -4 30 -4 33 3 14 8 -22 9
-20 10 17 1 32 5 43 21 48 15 5 20 16 22 48 l1 42 4 -43 c3 -25 10 -45 19 -49z
m-89 14 c1 -42 0 -46 -7 -22 -10 40 -12 75 -2 75 4 0 8 -24 9 -53z m-540 11
c-3 -7 -5 -2 -5 12 0 14 2 19 5 13 2 -7 2 -19 0 -25z m1487 -22 c-3 -21 -8
-35 -11 -32 -2 2 -1 20 3 40 3 21 8 35 11 32 2 -2 1 -20 -3 -40z m-650 8 c10
-15 16 -36 13 -49 -2 -14 0 -22 4 -19 5 3 9 2 9 -3 0 -14 -14 -30 -37 -42 -18
-9 -22 -8 -22 6 -1 10 -4 35 -7 56 -4 24 -2 37 5 37 6 0 12 -12 12 -27 1 -18
3 -22 6 -10 3 10 1 26 -3 35 -20 47 -9 56 20 16z m316 16 c0 -5 -4 -10 -10
-10 -5 0 -10 5 -10 10 0 6 5 10 10 10 6 0 10 -4 10 -10z m47 -57 c-3 -37 -25
-83 -39 -83 -4 0 -10 9 -13 20 -4 14 2 30 19 51 14 17 26 35 26 40 0 5 2 9 6
9 3 0 3 -17 1 -37z m-104 10 c-7 -2 -19 -2 -25 0 -7 3 -2 5 12 5 14 0 19 -2
13 -5z m880 -96 c9 -105 7 -451 -3 -542 l-7 -70 -3 85 c-4 92 -8 251 -9 314
l-1 39 -59 -7 -60 -7 -7 36 c-5 29 -10 35 -32 35 -25 0 -25 0 -7 20 14 16 20
17 27 8 5 -9 8 -7 8 7 0 29 97 141 117 137 14 -3 15 -1 5 11 -13 16 -6 28 13
21 7 -3 14 -35 18 -87z m-1486 -58 c1 -14 0 -17 -3 -6 -3 9 -10 17 -15 17 -5
0 -9 5 -9 11 0 22 25 2 27 -22z m500 -1 c-3 -8 -6 -5 -6 6 -1 11 2 17 5 13 3
-3 4 -12 1 -19z m179 -74 c-3 -8 -11 -14 -18 -13 -10 0 -10 2 0 6 6 2 13 23
14 46 1 39 2 39 5 9 3 -19 2 -40 -1 -48z m208 -19 c6 -28 5 -29 -9 -11 -8 11
-15 31 -15 45 1 31 14 12 24 -34z m134 -31 c-2 -27 -8 -40 -20 -42 -14 -3 -16
3 -12 35 8 57 13 68 25 56 6 -6 9 -28 7 -49z m262 -5 c0 -5 -4 -9 -10 -9 -5 0
-10 7 -10 16 0 8 5 12 10 9 6 -3 10 -10 10 -16z m-591 -50 c11 -36 15 -40 37
-35 13 4 44 9 67 12 39 6 46 3 66 -21 16 -21 21 -40 20 -75 -1 -26 1 -52 5
-58 3 -6 1 -14 -5 -18 -6 -3 -15 0 -20 7 -6 10 -10 9 -15 -6 -4 -11 -16 -32
-27 -48 l-19 -28 -35 31 c-44 39 -94 39 -103 0 -7 -31 -80 -56 -80 -27 0 7 -7
22 -15 33 -14 18 -14 17 -8 -15 4 -25 3 -32 -5 -27 -7 4 -12 13 -12 21 0 8 -5
17 -10 20 -7 4 -9 -2 -4 -19 3 -15 2 -26 -4 -26 -14 0 -19 68 -9 118 4 23 13
41 19 39 16 -3 29 66 15 76 -7 5 1 6 20 3 29 -5 33 -2 59 49 32 60 44 59 63
-6z m201 16 c7 -8 9 -15 6 -15 -4 0 -14 7 -22 15 -9 8 -11 15 -6 15 5 0 15 -7
22 -15z m410 -15 c0 -5 -4 -10 -9 -10 -6 0 -13 5 -16 10 -3 6 1 10 9 10 9 0
16 -4 16 -10z m-61 -11 c-18 -11 -39 -11 -39 0 0 5 12 9 26 9 18 0 22 -3 13
-9z m-974 -9 c3 -6 -1 -7 -9 -4 -18 7 -21 14 -7 14 6 0 13 -4 16 -10z m985
-10 c0 -5 -21 -9 -47 -9 l-48 2 40 7 c22 4 43 8 48 9 4 0 7 -3 7 -9z m68 3
c-10 -2 -28 -2 -40 0 -13 2 -5 4 17 4 22 1 32 -1 23 -4z m-1061 -65 c-3 -8 -6
-5 -6 6 -1 11 2 17 5 13 3 -3 4 -12 1 -19z m-666 -75 c-12 -20 -14 -14 -5 12
4 9 9 14 11 11 3 -2 0 -13 -6 -23z m65 -21 c-17 -16 -18 -16 -5 5 7 12 15 20
18 17 3 -2 -3 -12 -13 -22z m-100 -60 c-15 -15 -16 -15 -16 5 0 12 6 23 13 26
19 6 21 -13 3 -31z m34 5 c0 -2 -10 -12 -22 -23 l-23 -19 19 23 c18 21 26 27
26 19z m-61 -37 c11 -24 11 -24 -3 -6 -9 11 -16 24 -16 30 0 12 5 7 19 -24z
m1459 -225 c3 -93 0 -253 -4 -355 -7 -160 -9 -175 -15 -110 -3 41 -6 210 -7
375 -1 240 1 296 11 280 7 -13 13 -80 15 -190z m-1441 93 c-2 -13 -4 -3 -4 22
0 25 2 35 4 23 2 -13 2 -33 0 -45z m10 -118 c3 -8 5 -18 5 -23 -2 -9 46 2 68
15 10 6 3 7 -20 3 -27 -4 -30 -3 -14 4 12 5 43 12 70 15 37 4 41 3 19 -3 l-30
-9 28 -1 c15 0 30 -8 33 -16 4 -8 17 -15 30 -15 13 0 28 -9 34 -19 14 -27 14
-27 -17 -25 -50 3 -53 4 -53 22 0 14 -2 15 -10 2 -7 -11 -5 -19 10 -29 11 -7
20 -20 20 -27 0 -8 8 -14 18 -14 10 0 19 -7 19 -15 0 -8 -9 -15 -19 -15 -10 0
-18 7 -18 15 0 9 -9 15 -23 15 -30 0 -38 -9 -28 -29 8 -14 -2 -15 -107 -11
-95 5 -152 14 -152 24 0 0 9 30 20 66 15 49 17 66 7 72 -14 9 -5 10 17 2 9 -3
13 -11 9 -17 -3 -6 -1 -7 5 -3 7 4 12 2 12 -5 0 -14 29 21 30 35 0 6 -7 1 -15
-10 -14 -18 -15 -17 -4 8 7 15 16 25 21 22 4 -3 11 3 15 13 7 15 8 14 11 -7 2
-14 6 -32 9 -40z m-4 -177 c-7 -2 -21 -2 -30 0 -10 3 -4 5 12 5 17 0 24 -2 18
-5z m60 0 c-7 -2 -19 -2 -25 0 -7 3 -2 5 12 5 14 0 19 -2 13 -5z m75 -53 c5
-36 1 -75 -15 -138 -10 -41 -17 -118 -18 -197 -1 -71 -6 -141 -12 -155 -10
-23 -12 -21 -31 40 -18 58 -20 62 -24 35 -3 -17 -6 -4 -7 30 0 34 3 65 9 71
11 11 2 54 -11 54 -5 0 -9 31 -9 69 0 108 -10 114 -34 20 -16 -61 -26 -85 -39
-87 -11 -2 -17 3 -17 15 0 15 -2 16 -10 3 -7 -10 -10 8 -11 60 0 41 -2 89 -4
105 -9 85 23 110 72 55 27 -31 47 -34 22 -3 -9 11 -10 14 -1 9 7 -4 12 -2 12
8 0 17 18 22 81 21 33 0 46 -4 47 -15z m-101 -497 c-3 -10 -5 -4 -5 12 0 17 2
24 5 18 2 -7 2 -21 0 -30z m156 -52 c-4 -7 -34 21 -45 43 -7 14 -2 11 18 -9
16 -16 28 -32 27 -34z m-166 -58 c-3 -10 -5 -2 -5 17 0 19 2 27 5 18 2 -10 2
-26 0 -35z m1533 -54 c0 -6 -4 -7 -10 -4 -5 3 -10 1 -10 -6 0 -7 -3 -10 -6 -6
-10 10 5 39 16 32 5 -3 10 -11 10 -16z m103 -4 c-7 -21 -13 -19 -13 6 0 11 4
18 10 14 5 -3 7 -12 3 -20z m92 -3 c-8 -8 -25 10 -19 20 4 6 9 5 15 -3 4 -7 6
-15 4 -17z m115 14 c0 -8 -4 -18 -10 -21 -5 -3 -10 3 -10 14 0 12 5 21 10 21
6 0 10 -6 10 -14z m-995 -6 c3 -5 1 -10 -4 -10 -6 0 -11 5 -11 10 0 6 2 10 4
10 3 0 8 -4 11 -10z m490 0 c3 -5 1 -10 -4 -10 -6 0 -11 5 -11 10 0 6 2 10 4
10 3 0 8 -4 11 -10z m73 -15 c-3 -3 -9 2 -12 12 -6 14 -5 15 5 6 7 -7 10 -15
7 -18z m192 21 c0 -11 -19 -15 -25 -6 -3 5 1 10 9 10 9 0 16 -2 16 -4z m202
-11 c0 -5 -5 -11 -11 -13 -6 -2 -11 4 -11 13 0 9 5 15 11 13 6 -2 11 -8 11
-13z"/>
<path d="M915 3030 c-3 -5 1 -10 10 -10 9 0 13 5 10 10 -3 6 -8 10 -10 10 -2
0 -7 -4 -10 -10z"/>
<path d="M120 2960 c0 -5 5 -10 10 -10 6 0 10 5 10 10 0 6 -4 10 -10 10 -5 0
-10 -4 -10 -10z"/>
<path d="M170 2960 c0 -5 5 -10 10 -10 6 0 10 5 10 10 0 6 -4 10 -10 10 -5 0
-10 -4 -10 -10z"/>
<path d="M845 1450 c-42 -11 -1 -11 50 -1 34 7 35 9 10 9 -16 0 -43 -4 -60 -8z"/>
<path d="M768 1443 c6 -2 18 -2 25 0 6 3 1 5 -13 5 -14 0 -19 -2 -12 -5z"/>
<path d="M2166 1665 c4 -8 8 -15 10 -15 2 0 4 7 4 15 0 8 -4 15 -10 15 -5 0
-7 -7 -4 -15z"/>
<path d="M2096 1545 c4 -8 8 -15 10 -15 2 0 4 7 4 15 0 8 -4 15 -10 15 -5 0
-7 -7 -4 -15z"/>
<path d="M1520 1347 c8 -8 106 -19 98 -11 -4 4 -29 9 -55 12 -27 2 -46 2 -43
-1z"/>
<path d="M1468 1333 c6 -2 18 -2 25 0 6 3 1 5 -13 5 -14 0 -19 -2 -12 -5z"/>
<path d="M1360 1310 c-34 -7 -34 -7 -5 -8 17 0 39 3 50 8 24 10 4 10 -45 0z"/>
<path d="M1288 1303 c7 -3 16 -2 19 1 4 3 -2 6 -13 5 -11 0 -14 -3 -6 -6z"/>
<path d="M240 2780 l0 -70 80 0 80 0 0 70 0 70 -80 0 -80 0 0 -70z m30 50 c0
-5 -5 -10 -11 -10 -5 0 -7 5 -4 10 3 6 8 10 11 10 2 0 4 -4 4 -10z m40 -2 c0
-4 -7 -8 -15 -8 -8 0 -15 4 -15 8 0 5 7 9 15 9 8 0 15 -4 15 -9z m30 -30 c0
-5 -13 -8 -30 -8 -16 0 -30 4 -30 10 0 5 13 8 30 7 16 -1 30 -5 30 -9z m49
-32 c-10 -10 -69 -13 -69 -4 0 6 6 8 13 5 6 -2 21 -1 32 3 19 7 33 5 24 -4z
m-79 0 c0 -3 -4 -8 -10 -11 -5 -3 -10 -1 -10 4 0 6 5 11 10 11 6 0 10 -2 10
-4z m35 -36 c3 -4 -18 -8 -45 -7 -28 0 -50 4 -50 8 0 10 89 9 95 -1z"/>
<path d="M570 2780 l0 -70 83 1 c45 0 75 3 67 6 -8 3 -18 11 -22 17 -5 8 -8 7
-8 -1 0 -7 -10 -13 -22 -13 -17 0 -19 3 -10 12 16 16 16 51 0 46 -7 -3 -14
-10 -14 -16 -1 -7 -2 -19 -3 -27 -1 -9 -11 -15 -28 -15 -22 0 -25 2 -13 10 13
9 13 11 1 19 -16 10 -23 51 -9 51 5 0 8 8 6 17 -2 13 6 17 45 17 26 1 47 -2
47 -6 0 -5 9 -8 20 -8 11 0 20 7 20 15 0 12 -16 15 -80 15 l-80 0 0 -70z"/>
<path d="M680 2799 c0 -5 5 -7 10 -4 6 3 10 8 10 11 0 2 -4 4 -10 4 -5 0 -10
-5 -10 -11z"/>
<path d="M713 2787 c-8 -17 -7 -28 3 -42 13 -17 14 -15 14 23 0 48 -3 51 -17
19z"/>
<path d="M967 2787 c-3 -8 1 -14 8 -14 7 0 11 6 8 14 -3 7 -6 13 -8 13 -2 0
-5 -6 -8 -13z"/>
<path d="M534 2692 c4 -7 32 -30 61 -52 37 -27 55 -48 58 -67 4 -22 5 -21 3 6
-1 29 -9 39 -66 80 -35 25 -61 40 -56 33z"/>
<path d="M1120 2696 c0 -3 5 -17 10 -32 13 -33 36 -19 25 15 -5 17 -35 31 -35
17z"/>
<path d="M960 2647 c0 -23 11 -47 21 -47 15 0 10 37 -6 50 -12 10 -15 10 -15
-3z"/>
<path d="M1581 2541 c7 -10 21 -24 33 -31 15 -9 12 -3 -8 19 -34 35 -41 39
-25 12z"/>
<path d="M839 2451 c6 -10 7 -22 3 -27 -4 -5 -1 -4 6 2 13 11 6 44 -9 44 -6 0
-6 -8 0 -19z"/>
<path d="M0 2426 c0 -35 19 -53 38 -34 14 14 3 47 -19 59 -17 9 -19 6 -19 -25z"/>
<path d="M903 2425 c0 -22 2 -30 4 -17 2 12 2 30 0 40 -3 9 -5 -1 -4 -23z"/>
<path d="M1426 2435 c4 -8 11 -15 16 -15 6 0 5 6 -2 15 -7 8 -14 15 -16 15 -2
0 -1 -7 2 -15z"/>
<path d="M2070 2330 c6 -11 13 -20 16 -20 2 0 0 9 -6 20 -6 11 -13 20 -16 20
-2 0 0 -9 6 -20z"/>
<path d="M0 2302 c0 -5 11 -14 25 -20 14 -6 25 -10 25 -8 0 2 -11 11 -25 20
-14 9 -25 13 -25 8z"/>
<path d="M2015 2290 c-3 -5 -2 -10 4 -10 5 0 13 5 16 10 3 6 2 10 -4 10 -5 0
-13 -4 -16 -10z"/>
<path d="M940 2277 c0 -3 12 -12 26 -22 15 -9 23 -12 20 -6 -7 11 -46 35 -46
28z"/>
<path d="M2065 2239 c-4 -6 -5 -12 -2 -15 2 -3 7 2 10 11 7 17 1 20 -8 4z"/>
<path d="M614 2125 c0 -49 1 -71 3 -48 2 23 2 64 0 90 -2 26 -3 8 -3 -42z"/>
<path d="M312 2160 c0 -19 2 -27 5 -17 2 9 2 25 0 35 -3 9 -5 1 -5 -18z"/>
<path d="M360 2142 c0 -22 4 -43 9 -46 8 -5 3 74 -5 83 -2 2 -4 -14 -4 -37z"/>
<path d="M761 2154 c0 -11 3 -14 6 -6 3 7 2 16 -1 19 -3 4 -6 -2 -5 -13z"/>
<path d="M833 2153 c-7 -2 -13 -9 -13 -15 0 -6 6 -6 15 2 10 9 15 9 15 1 0 -6
4 -11 10 -11 5 0 7 7 4 15 -6 16 -11 17 -31 8z"/>
<path d="M930 2130 c0 -6 7 -13 15 -16 9 -4 13 -16 11 -32 -2 -15 -1 -20 1
-12 3 8 9 20 14 26 6 8 4 18 -6 28 -19 18 -35 21 -35 6z"/>
<path d="M632 2048 c-1 -49 -6 -88 -11 -88 -5 0 -7 17 -5 38 4 30 3 34 -6 19
-9 -13 -15 -15 -30 -7 -14 7 -19 6 -22 -4 -2 -11 -19 -6 -72 20 -38 19 -71 33
-73 30 -2 -2 25 -18 60 -37 l64 -33 -5 -120 -5 -119 39 23 c21 13 41 25 43 26
2 2 -6 12 -19 22 l-23 19 37 40 37 41 -4 109 c-3 107 -3 107 -5 21z"/>
<path d="M185 2099 c-13 -19 4 -59 25 -59 25 0 27 32 4 54 -18 19 -21 19 -29
5z"/>
<path d="M2156 2012 c-4 -35 -6 -66 -3 -69 9 -8 19 59 15 98 -3 27 -5 21 -12
-29z"/>
<path d="M2231 2045 c0 -17 -10 -48 -21 -70 -24 -47 -24 -45 -5 -45 9 0 12 6
9 15 -4 8 -1 15 4 15 13 0 25 58 19 91 -4 20 -4 19 -6 -6z"/>
<path d="M800 2055 c0 -5 5 -17 10 -25 5 -8 10 -10 10 -5 0 6 -5 17 -10 25 -5
8 -10 11 -10 5z"/>
<path d="M930 2029 c0 -11 4 -18 10 -14 5 3 7 12 3 20 -7 21 -13 19 -13 -6z"/>
<path d="M444 1967 c-9 -24 0 -52 16 -52 21 0 24 39 6 55 -13 10 -17 9 -22 -3z"/>
<path d="M650 1898 c-37 -51 -41 -87 -5 -43 14 17 23 36 20 43 -2 6 0 12 4 12
5 0 11 7 15 15 10 26 -3 16 -34 -27z"/>
<path d="M2150 1891 c0 -5 -8 -8 -17 -6 -10 1 -12 0 -5 -2 6 -3 12 -11 12 -19
0 -8 8 -14 18 -14 12 0 14 2 4 8 -7 5 -10 16 -6 25 3 9 3 17 0 17 -3 0 -6 -4
-6 -9z"/>
<path d="M2008 1873 c7 -3 16 -2 19 1 4 3 -2 6 -13 5 -11 0 -14 -3 -6 -6z"/>
<path d="M2100 1843 c-6 -15 -12 -33 -15 -39 -2 -7 4 -10 15 -7 15 4 18 12 14
37 -4 28 -3 29 6 8 8 -19 30 -23 30 -6 0 3 -4 2 -10 -1 -5 -3 -10 1 -10 9 0
28 -20 27 -30 -1z"/>
<path d="M675 1817 c-4 -10 -5 -21 -1 -24 10 -10 18 4 13 24 -4 17 -4 17 -12
0z"/>
<path d="M447 1573 c-11 -10 -8 -25 4 -18 6 4 13 -2 16 -14 3 -12 9 -21 14
-21 5 0 4 11 -1 24 -5 13 -6 27 -3 30 4 3 0 6 -9 6 -8 0 -18 -3 -21 -7z"/>
<path d="M1889 1558 c-6 -21 -5 -39 2 -44 5 -3 9 4 9 16 0 12 5 18 10 15 6 -3
10 -1 10 4 0 9 -28 17 -31 9z"/>
<path d="M440 1530 c-9 -6 -10 -10 -3 -10 6 0 15 5 18 10 8 12 4 12 -15 0z"/>
<path d="M352 1521 c-11 -7 -11 -9 0 -13 7 -3 19 1 26 8 10 11 10 14 0 14 -7
0 -19 -4 -26 -9z"/>
<path d="M263 1493 c9 -2 23 -2 30 0 6 3 -1 5 -18 5 -16 0 -22 -2 -12 -5z"/>
<path d="M406 1467 c-7 -27 -5 -28 16 -6 13 14 14 19 3 23 -7 2 -15 -4 -19
-17z"/>
<path d="M452 1420 c0 -14 2 -19 5 -12 2 6 2 18 0 25 -3 6 -5 1 -5 -13z"/>
<path d="M280 1420 c-9 -6 -10 -10 -3 -10 6 0 15 5 18 10 8 12 4 12 -15 0z"/>
</g>
</svg>
